Coordinates
version=1
nRows=8
nColumns=36
inDegrees=yes

Units are S.I. units (second, meters, Newtons, ...)
If the header above contains a line with 'inDegrees', this indicates whether rotational values are in degrees (yes) or radians (no).

endheader
time	pelvis_tilt	pelvis_list	pelvis_rotation	pelvis_tx	pelvis_ty	pelvis_tz	hip_flexion_r	hip_adduction_r	hip_rotation_r	knee_angle_r	knee_angle_r_beta	ankle_angle_r	subtalar_angle_r	mtp_angle_r	hip_flexion_l	hip_adduction_l	hip_rotation_l	knee_angle_l	knee_angle_l_beta	ankle_angle_l	subtalar_angle_l	mtp_angle_l	lumbar_extension	lumbar_bending	lumbar_rotation	arm_flex_r	arm_add_r	arm_rot_r	elbow_flex_r	pro_sup_r	arm_flex_l	arm_add_l	arm_rot_l	elbow_flex_l	pro_sup_l
      3.02083330	    -12.45515189	      0.18165193	      1.55700900	     -0.25167255	      1.28244265	     -0.06878422	     28.06423151	     -6.18653682	     -7.04205636	     39.48218095	      0.68909405	     -5.10516201	      0.48372352	     -7.49999987	     24.00661254	     -5.92305460	     -8.82918514	     34.15724811	      0.59615644	     -4.80453490	     -4.35473896	     -7.49999987	     -9.23367554	      2.32503477	     -8.84702901	     -2.17980587	    -66.93769097	    -28.06572433	    104.16572551	     76.73114534	    -75.25002474	    -62.36861980	   -120.28845977	     92.61498334	     64.19295440
      3.02500000	    -12.45557056	      0.23518742	      1.52707202	     -0.24560797	      1.27928344	     -0.06783670	     28.21222467	     -6.19365530	     -7.01772123	     38.65721091	      0.67469561	     -5.27964147	      0.96501516	     -7.49999987	     24.28136316	     -5.98914414	     -9.04526804	     33.56145431	      0.58575788	     -5.40546649	     -4.07593715	     -7.49999987	     -9.13300657	      2.26611788	     -8.92060296	     -2.47907819	    -67.19484186	    -28.07246865	    103.86021362	     76.82577443	    -75.22796255	    -61.91755720	   -120.43943070	     92.04002298	     64.19092259
      3.02916670	    -12.47733522	      0.29742104	      1.74267667	     -0.23966610	      1.27622754	     -0.06774731	     28.18658213	     -6.46515307	     -7.35197938	     37.68329054	      0.65769749	     -5.47010090	      1.74080463	     -7.49999987	     24.45209536	     -5.95009726	     -9.34771698	     32.89061608	      0.57404954	     -5.73649886	     -4.79095288	     -7.49999987	     -8.91045659	      2.26835419	     -9.28158785	     -3.16270992	    -67.81929072	    -27.81004670	    103.48652460	     75.77164595	    -75.70217491	    -61.77209781	   -120.49612126	     90.68072519	     63.89997058
      3.03333330	    -12.51864189	      0.27448957	      1.79939035	     -0.23611888	      1.27167485	     -0.06710028	     28.61310319	     -6.44550623	     -7.58522167	     37.10761641	      0.64765008	     -6.00889127	      2.07536002	     -7.49999987	     24.84997551	     -5.98602681	     -9.52675013	     32.48778753	      0.56701886	     -6.22111239	     -4.43176083	     -7.49999987	     -8.82279146	      2.34680374	     -9.52609516	     -3.48371480	    -68.06674738	    -28.20023561	    102.34590206	     75.80073368	    -75.92286960	    -60.99541353	   -120.63084989	     89.94978619	     63.89254046
      3.03750000	    -12.54689119	      0.31576769	      1.64023138	     -0.23108132	      1.26976563	     -0.06725579	     29.01232914	     -6.49501286	     -7.74892304	     36.35313187	      0.63448184	     -7.07403084	      1.48048093	     -7.49999987	     25.17467331	     -6.00776189	     -9.51465629	     31.68240498	      0.55296228	     -7.45011357	     -4.38873724	     -7.49999987	     -8.81111883	      2.24724339	     -9.42155005	     -4.08095378	    -68.34568159	    -28.18830721	    102.38134086	     76.19974347	    -76.56433093	    -60.73892135	   -121.08270884	     89.22124032	     63.92230220
      3.04166670	    -12.47400422	      0.34135676	      1.76195042	     -0.22514876	      1.26668511	     -0.06901797	     29.04119192	     -6.75370808	     -8.10292346	     35.44333643	      0.61860292	     -7.48061331	      1.41955736	     -7.49999987	     25.13169850	     -5.80841506	     -9.51213141	     30.77607591	      0.53714386	     -7.53278264	     -4.26458194	     -7.49999987	     -8.77561232	      2.33722843	     -9.71338897	     -4.47763647	    -68.84915972	    -28.31418753	    101.23947536	     76.37861512	    -76.73858020	    -60.41491423	   -120.89362474	     88.50354792	     63.93645427
      3.04583330	    -12.39065752	      0.27180349	      2.05868025	     -0.21956401	      1.25998067	     -0.06923006	     29.04577061	     -6.90171669	     -8.30384228	     34.68862509	      0.60543072	     -7.45387874	      1.44738490	     -7.49999987	     25.38816807	     -5.68348563	     -9.34176976	     30.52163276	      0.53270298	     -7.26111563	     -4.62611547	     -7.49999987	     -8.52228565	      2.56678112	    -10.21501954	     -5.17149081	    -69.63031215	    -28.46569011	     99.28820765	     76.37815961	    -77.02380835	    -60.35376683	   -120.67814408	     87.36457998	     63.90071476
      3.05000000	    -12.35381974	      0.32633392	      1.98360274	     -0.21425103	      1.25770592	     -0.06839865	     28.98273189	     -6.90927486	     -8.10227953	     33.56854046	      0.58588156	     -7.23597044	      1.89566992	     -7.49999987	     25.47418008	     -5.51414381	     -8.96589987	     29.90976566	      0.52202389	     -6.91935394	     -4.23941286	     -7.49999987	     -8.41204916	      2.65911494	    -10.35479374	     -5.57315279	    -70.62742085	    -28.65188672	     96.82904916	     75.07384792	    -77.28635714	    -60.22291480	   -120.60914594	     85.90823219	     63.54591688
